<svg width="280" height="303" viewBox="0 0 280 303" fill="none" xmlns="http://www.w3.org/2000/svg">
<path d="M79.2694 166.242L69.9999 176.27L60.7304 166.242L52.9976 174.61L62.2644 184.641L52.9976 194.672L60.7304 203.04L69.9999 193.012L79.2694 203.04L87.0022 194.672L77.7354 184.641L87.0022 174.61L79.2694 166.242Z" fill="#00AEEF"/>
<path d="M65.625 157.419C67.025 157.419 68.425 156.842 69.4914 155.685L86.9914 136.748L79.2559 128.377L65.625 143.133L60.7414 137.849L53.0059 146.22L61.7559 155.688C62.825 156.842 64.225 157.419 65.625 157.419Z" fill="#00AEEF"/>
<path d="M175 136.113H96.25V147.949H175V136.113Z" fill="#00AEEF"/>
<path d="M65.625 228.351L60.7414 223.066L53.0059 231.437L61.7559 240.906C62.825 242.063 64.2223 242.64 65.6223 242.64C67.0223 242.64 68.4223 242.063 69.4887 240.906L86.9887 221.969L79.2531 213.598L65.625 228.351Z" fill="#00AEEF"/>
<path d="M250.873 177.889C250.436 175.566 248.76 173.75 246.613 173.276L218.821 167.113L206.719 140.1V75.7509C206.719 75.7214 206.716 75.6918 206.713 75.6622C206.711 75.5261 206.705 75.3929 206.694 75.2568C206.691 75.2095 206.686 75.1592 206.683 75.1118C206.667 74.9372 206.642 74.7656 206.612 74.594C206.612 74.5881 206.609 74.5851 206.609 74.5792C206.579 74.4135 206.538 74.2507 206.495 74.088C206.481 74.0407 206.467 73.9933 206.454 73.946C206.415 73.8187 206.374 73.6945 206.33 73.5702C206.314 73.5288 206.3 73.4844 206.284 73.4429C206.221 73.2802 206.153 73.1234 206.076 72.9665C206.073 72.9636 206.071 72.9577 206.071 72.9547C205.997 72.8068 205.915 72.6618 205.83 72.5197C205.805 72.4783 205.778 72.4398 205.754 72.3984C205.685 72.2889 205.611 72.1824 205.535 72.0788C205.507 72.0404 205.477 71.999 205.447 71.9605C205.343 71.8244 205.234 71.6942 205.119 71.5669L170.119 33.6919C170.002 33.5647 169.881 33.4493 169.755 33.3369C169.72 33.3043 169.682 33.2718 169.643 33.2392C169.55 33.1593 169.455 33.0824 169.356 33.0084C169.318 32.9788 169.277 32.9492 169.239 32.9196C169.113 32.8309 168.982 32.7451 168.85 32.6681C168.842 32.6622 168.834 32.6563 168.826 32.6533C168.684 32.5705 168.539 32.4995 168.391 32.4314C168.35 32.4137 168.306 32.3959 168.265 32.3782C168.153 32.3308 168.041 32.2864 167.929 32.248C167.882 32.2332 167.839 32.2154 167.792 32.2006C167.645 32.1533 167.497 32.1118 167.346 32.0793C167.341 32.0763 167.333 32.0763 167.327 32.0734C167.169 32.0408 167.01 32.0142 166.852 31.9964C166.805 31.9905 166.761 31.9876 166.715 31.9846C166.592 31.9728 166.466 31.9669 166.34 31.9639C166.313 31.9639 166.286 31.9609 166.258 31.9609H43.7309C35.9023 31.958 29.5312 38.8524 29.5312 47.324V255.678C29.5312 264.149 35.9023 271.044 43.7309 271.044H192.519C200.348 271.044 206.719 264.149 206.719 255.678V224.754L225.982 237.078C227.899 238.306 230.314 238.152 232.086 236.687C233.855 235.225 234.629 232.746 234.041 230.42L226.469 200.505L248.623 183.94C250.425 182.594 251.311 180.212 250.873 177.889ZM188.048 69.833H174.984C173.184 69.833 171.721 68.2499 171.721 66.3029V52.1649L188.048 69.833ZM192.519 259.208H43.7309C41.9316 259.208 40.4688 257.625 40.4688 255.678V47.324C40.4688 45.377 41.9316 43.7939 43.7309 43.7939H160.781V66.3029C160.781 74.7774 167.152 81.6689 174.981 81.6689H195.781V141.245L184.193 167.113L156.401 173.276C154.254 173.753 152.578 175.569 152.141 177.892C152.089 178.17 152.056 178.448 152.042 178.727H96.25V190.562H163.245L176.55 200.508L171.276 221.333H96.25V233.169H168.894C169.154 234.542 169.857 235.802 170.931 236.69C171.049 236.788 171.166 236.877 171.289 236.962C171.333 236.992 171.377 237.019 171.418 237.045C171.497 237.098 171.579 237.152 171.661 237.199C171.713 237.229 171.768 237.255 171.82 237.285C171.894 237.326 171.97 237.365 172.047 237.403C172.104 237.43 172.162 237.456 172.222 237.48C172.296 237.513 172.37 237.542 172.443 237.572C172.504 237.596 172.564 237.616 172.627 237.637C172.7 237.661 172.774 237.684 172.851 237.708C172.914 237.726 172.977 237.744 173.039 237.758C173.113 237.776 173.19 237.794 173.264 237.809C173.327 237.82 173.389 237.832 173.455 237.844C173.532 237.856 173.608 237.865 173.685 237.874C173.748 237.88 173.811 237.888 173.873 237.894C173.953 237.9 174.032 237.903 174.111 237.906C174.158 237.906 174.207 237.912 174.254 237.912C174.27 237.912 174.284 237.912 174.3 237.909C174.344 237.909 174.385 237.906 174.429 237.903C174.513 237.9 174.595 237.897 174.68 237.888C174.729 237.886 174.776 237.88 174.825 237.874C174.904 237.865 174.984 237.856 175.06 237.841C175.109 237.832 175.161 237.823 175.211 237.815C175.287 237.8 175.364 237.785 175.437 237.764C175.489 237.752 175.539 237.741 175.591 237.726C175.667 237.705 175.741 237.681 175.815 237.658C175.864 237.643 175.913 237.625 175.963 237.607C176.039 237.581 176.113 237.551 176.189 237.519C176.236 237.501 176.282 237.48 176.329 237.459C176.411 237.424 176.49 237.382 176.57 237.341C176.608 237.32 176.646 237.303 176.684 237.282C176.802 237.22 176.917 237.152 177.032 237.078L195.781 225.085V255.678C195.781 257.625 194.318 259.208 192.519 259.208ZM217.06 193.152C215.149 194.581 214.279 197.161 214.895 199.584L219.923 219.451L204.291 209.45C203.432 208.899 202.47 208.627 201.507 208.627C200.539 208.627 199.571 208.905 198.71 209.462L183.094 219.454L188.125 199.587C188.74 197.164 187.871 194.584 185.959 193.155L171.155 182.088L189.038 178.123C189.246 178.076 189.451 178.016 189.651 177.945C191.048 177.448 192.213 176.356 192.861 174.907L197.723 164.053L201.51 155.602L210.159 174.909C210.9 176.566 212.313 177.756 213.981 178.126L231.864 182.091L217.06 193.152Z" fill="#00AEEF"/>
<path d="M88.3998 59.9905C87.7518 57.4161 85.5916 55.6289 83.1252 55.6289H74.3752C71.9088 55.6289 69.7486 57.4161 69.1006 59.9905L55.9756 112.069L66.5275 115.181L71.3947 95.8711H86.1084L90.9756 115.181L101.528 112.069L88.3998 59.9905ZM74.3752 84.0352L78.5506 67.4648H78.9471L83.1252 84.0352H74.3752Z" fill="#00AEEF"/>
<path d="M117.026 104.152H127.963V91.1386H139.986V79.3027H127.963V66.2891H117.026V79.3027H105V91.1386H117.026V104.152Z" fill="#00AEEF"/>
</svg>
