<svg width="259" height="233" viewBox="0 0 259 233" fill="none" xmlns="http://www.w3.org/2000/svg">
<path fill-rule="evenodd" clip-rule="evenodd" d="M43.1668 48.541C37.4426 48.541 31.9528 50.5867 27.9051 54.228C23.8574 57.8694 21.5835 62.8081 21.5835 67.9577V165.041C21.5835 170.191 23.8574 175.129 27.9051 178.771C31.9528 182.412 37.4426 184.458 43.1668 184.458H215.833C221.558 184.458 227.048 182.412 231.095 178.771C235.143 175.129 237.417 170.191 237.417 165.041V67.9577C237.417 62.8081 235.143 57.8694 231.095 54.228C227.048 50.5867 221.558 48.541 215.833 48.541H43.1668ZM53.9585 67.9577C51.0964 67.9577 48.3515 68.9805 46.3276 70.8012C44.3038 72.6219 43.1668 75.0912 43.1668 77.666V155.333C43.1668 157.907 44.3038 160.377 46.3276 162.198C48.3515 164.018 51.0964 165.041 53.9585 165.041H205.042C207.904 165.041 210.649 164.018 212.673 162.198C214.697 160.377 215.833 157.907 215.833 155.333V77.666C215.833 75.0912 214.697 72.6219 212.673 70.8012C210.649 68.9805 207.904 67.9577 205.042 67.9577H53.9585Z" fill="#00AEEF"/>
<path d="M21.5835 87.375H237.417V106.792H21.5835V87.375ZM64.7502 135.917H129.5V145.625H64.7502V135.917Z" fill="#00AEEF"/>
</svg>
