<svg width="166" height="113" viewBox="0 0 166 113" fill="none" xmlns="http://www.w3.org/2000/svg">
<path fill-rule="evenodd" clip-rule="evenodd" d="M88.7839 95.0286C88.7839 95.0286 87.3834 94.9292 87.3834 93.9626V93.3714L88.7839 94.4055L87.3834 93.3529C87.3834 87.632 84.0269 82.6976 78.5364 78.8529C77.7584 78.3123 76.9579 77.7935 76.091 77.2984C75.7131 77.0812 75.5131 76.7343 75.5575 76.3772C75.602 76.0219 75.8689 75.7053 76.2912 75.5352C81.8262 73.2869 88.6283 72.0542 95.497 72.0542C105.122 72.0542 114.636 74.4877 120.705 78.7333C124.572 81.448 126.995 84.9139 126.995 88.9541V92.6506C126.995 93.9592 125.639 95.0286 123.928 95.0286H88.7839ZM65.777 76.5928C67.8221 77.285 69.7559 78.0832 71.512 78.9842C72.9569 79.7067 74.2685 80.4948 75.491 81.3453C80.048 84.5367 82.9154 88.6055 82.9154 93.3529V97.7484C82.9154 98.2654 82.7154 98.7504 82.3819 99.158C81.7818 99.8922 80.7147 100.377 79.5143 100.377H11.8942C10.0048 100.377 8.49316 99.1934 8.49316 97.7484V93.3529C8.49316 88.6055 11.3606 84.535 15.9175 81.3436C23.0752 76.3267 34.3231 73.457 45.7043 73.457C52.7731 73.457 59.7752 74.5584 65.777 76.5928ZM106.389 44.0914C113.124 49.1942 113.124 57.4699 106.389 62.5744C99.6536 67.6789 88.7393 67.6789 82.004 62.5744C75.2686 57.4699 75.2686 49.1942 82.004 44.0914C88.7393 38.9869 99.6536 38.9869 106.389 44.0914ZM58.9971 39.4147C67.0217 45.4825 67.0217 55.3227 58.9971 61.3922C50.9947 67.4633 38.0129 67.4633 29.9883 61.3922C21.9859 55.3227 21.9859 45.4825 29.9883 39.4147C38.0129 33.3435 50.9947 33.3435 58.9971 39.4147Z" fill="#00AEEF"/>
</svg>
