<svg width="231" height="202" viewBox="0 0 231 202" fill="none" xmlns="http://www.w3.org/2000/svg">
<path fill-rule="evenodd" clip-rule="evenodd" d="M38.5 168.334V29.459H28.875V172.542C28.875 174.867 31.0297 176.751 33.6875 176.751H197.312V168.334H38.5Z" fill="#19E6A6"/>
<path d="M57.75 105.209H86.625V172.542H57.75V105.209Z" fill="#19E6A6"/>
<path fill-rule="evenodd" clip-rule="evenodd" d="M52.9375 105.208C52.9375 102.884 55.0921 101 57.75 101H86.625C89.2829 101 91.4375 102.884 91.4375 105.208V172.542C91.4375 174.866 89.2829 176.75 86.625 176.75H57.75C55.0921 176.75 52.9375 174.866 52.9375 172.542V105.208ZM62.5625 109.417V168.333H81.8125V109.417H62.5625Z" fill="#19E6A6"/>
<path d="M105.875 88.375H134.75V172.542H105.875V88.375Z" fill="#19E6A6"/>
<path fill-rule="evenodd" clip-rule="evenodd" d="M101.062 88.3743C101.062 86.0501 103.217 84.166 105.875 84.166H134.75C137.408 84.166 139.562 86.0501 139.562 88.3743V172.541C139.562 174.865 137.408 176.749 134.75 176.749H105.875C103.217 176.749 101.062 174.865 101.062 172.541V88.3743ZM110.688 92.5827V168.333H129.938V92.5827H110.688Z" fill="#19E6A6"/>
<path d="M154 54.709H182.875V172.542H154V54.709Z" fill="#19E6A6"/>
<path fill-rule="evenodd" clip-rule="evenodd" d="M149.188 54.7083C149.188 52.3841 151.342 50.5 154 50.5H182.875C185.533 50.5 187.688 52.3841 187.688 54.7083V172.542C187.688 174.866 185.533 176.75 182.875 176.75H154C151.342 176.75 149.188 174.866 149.188 172.542V54.7083ZM158.812 58.9167V168.333H178.062V58.9167H158.812Z" fill="#19E6A6"/>
</svg>
