<svg width="188" height="175" viewBox="0 0 188 175" fill="none" xmlns="http://www.w3.org/2000/svg">
<g clip-path="url(#clip0_5_27)">
<path d="M94 0C68.8932 0 45.2874 9.10547 27.5361 25.6348C9.77894 42.1559 0 64.1293 0 87.5C0 110.871 9.77894 132.844 27.5361 149.368C45.2874 165.897 68.8902 175 94 175C119.11 175 142.713 165.895 160.467 149.365C178.221 132.844 188 110.871 188 87.5C188 64.1293 178.221 42.1559 160.464 25.632C142.713 9.10273 119.107 0 94 0ZM156.313 145.502C139.666 160.997 117.538 169.531 94 169.531C70.4618 169.531 48.3336 160.997 31.6898 145.499C15.04 130.009 5.875 109.411 5.875 87.5C5.875 65.5895 15.0429 44.9914 31.6898 29.4984C48.3307 14.0027 70.4589 5.46875 94 5.46875C117.541 5.46875 139.669 14.0055 156.313 29.5012C172.96 44.9914 182.125 65.5895 182.125 87.5C182.125 109.411 172.96 130.009 156.313 145.502Z" fill="#19E6A6"/>
<path d="M96.9375 32.8125H91.0625V88.632L118.361 114.043L122.514 110.176L96.9375 86.368V32.8125ZM11.75 84.7656H23.5V90.2344H11.75V84.7656ZM164.5 84.7656H176.25V90.2344H164.5V84.7656ZM91.0625 153.125H96.9375V164.062H91.0625V153.125ZM91.0625 10.9375H96.9375V21.875H91.0625V10.9375Z" fill="#19E6A6"/>
</g>
<defs>
<clipPath id="clip0_5_27">
<rect width="188" height="175" fill="white"/>
</clipPath>
</defs>
</svg>
